<mxfile host="app.diagrams.net" modified="2022-05-17T08:57:45.683Z" agent="5.0 (X11; Linux x86_64) AppleWebKit/537.36 (KHTML, like Gecko) Chrome/101.0.4951.54 Safari/537.36" etag="eMdQcUC79t_jOe280Q0h" version="18.0.5" type="github">
  <diagram id="kgpKYQtTHZ0yAKxKKP6v" name="Page-1">
    <mxGraphModel dx="1422" dy="800" grid="1" gridSize="10" guides="1" tooltips="1" connect="1" arrows="1" fold="1" page="1" pageScale="1" pageWidth="850" pageHeight="1100" math="0" shadow="0">
      <root>
        <mxCell id="0" />
        <mxCell id="1" parent="0" />
        <mxCell id="3nuBFxr9cyL0pnOWT2aG-1" value=":EndUser" style="shape=umlLifeline;perimeter=lifelinePerimeter;container=1;collapsible=0;recursiveResize=0;rounded=0;shadow=0;strokeWidth=1;" parent="1" vertex="1">
          <mxGeometry x="120" y="80" width="100" height="920" as="geometry" />
        </mxCell>
        <mxCell id="3nuBFxr9cyL0pnOWT2aG-2" value="" style="points=[];perimeter=orthogonalPerimeter;rounded=0;shadow=0;strokeWidth=1;" parent="3nuBFxr9cyL0pnOWT2aG-1" vertex="1">
          <mxGeometry x="45" y="70" width="10" height="810" as="geometry" />
        </mxCell>
        <mxCell id="3nuBFxr9cyL0pnOWT2aG-3" value="dispatch" style="verticalAlign=bottom;startArrow=oval;endArrow=block;startSize=8;shadow=0;strokeWidth=1;" parent="3nuBFxr9cyL0pnOWT2aG-1" target="3nuBFxr9cyL0pnOWT2aG-2" edge="1">
          <mxGeometry relative="1" as="geometry">
            <mxPoint x="-15" y="70" as="sourcePoint" />
          </mxGeometry>
        </mxCell>
        <mxCell id="3nuBFxr9cyL0pnOWT2aG-5" value=":3rdParty" style="shape=umlLifeline;perimeter=lifelinePerimeter;container=1;collapsible=0;recursiveResize=0;rounded=0;shadow=0;strokeWidth=1;" parent="1" vertex="1">
          <mxGeometry x="360" y="80" width="100" height="920" as="geometry" />
        </mxCell>
        <mxCell id="h-oLE68M1VgkEwbi_Za4-15" value="alt" style="shape=umlFrame;whiteSpace=wrap;html=1;" parent="3nuBFxr9cyL0pnOWT2aG-5" vertex="1">
          <mxGeometry x="-320" y="240" width="840" height="360" as="geometry" />
        </mxCell>
        <mxCell id="3nuBFxr9cyL0pnOWT2aG-6" value="" style="points=[];perimeter=orthogonalPerimeter;rounded=0;shadow=0;strokeWidth=1;" parent="3nuBFxr9cyL0pnOWT2aG-5" vertex="1">
          <mxGeometry x="45" y="80" width="10" height="800" as="geometry" />
        </mxCell>
        <mxCell id="h-oLE68M1VgkEwbi_Za4-17" value="Verify OTP" style="verticalAlign=bottom;endArrow=block;entryX=0.714;entryY=0.393;shadow=0;strokeWidth=1;entryDx=0;entryDy=0;entryPerimeter=0;exitX=0.167;exitY=0.393;exitDx=0;exitDy=0;exitPerimeter=0;" parent="3nuBFxr9cyL0pnOWT2aG-5" source="h-oLE68M1VgkEwbi_Za4-15" target="h-oLE68M1VgkEwbi_Za4-15" edge="1">
          <mxGeometry relative="1" as="geometry">
            <mxPoint x="-105" y="401.0000000000002" as="sourcePoint" />
            <mxPoint x="165" y="401.0000000000002" as="targetPoint" />
          </mxGeometry>
        </mxCell>
        <mxCell id="h-oLE68M1VgkEwbi_Za4-18" value="Access Token Login + OTP + OTP ID + duration" style="text;html=1;align=center;verticalAlign=middle;resizable=0;points=[];autosize=1;strokeColor=none;fillColor=none;fontSize=10;" parent="3nuBFxr9cyL0pnOWT2aG-5" vertex="1">
          <mxGeometry x="-70" y="388" width="230" height="20" as="geometry" />
        </mxCell>
        <mxCell id="h-oLE68M1VgkEwbi_Za4-19" value="" style="html=1;verticalAlign=bottom;endArrow=open;dashed=1;endSize=8;rounded=0;" parent="3nuBFxr9cyL0pnOWT2aG-5" edge="1">
          <mxGeometry x="0.0353" y="-9" relative="1" as="geometry">
            <mxPoint x="444" y="529" as="sourcePoint" />
            <mxPoint x="300" y="529" as="targetPoint" />
            <mxPoint as="offset" />
          </mxGeometry>
        </mxCell>
        <mxCell id="h-oLE68M1VgkEwbi_Za4-20" value="Request OTP" style="verticalAlign=bottom;endArrow=block;shadow=0;strokeWidth=1;entryX=-0.167;entryY=0.013;entryDx=0;entryDy=0;entryPerimeter=0;" parent="3nuBFxr9cyL0pnOWT2aG-5" edge="1">
          <mxGeometry relative="1" as="geometry">
            <mxPoint x="290" y="280" as="sourcePoint" />
            <mxPoint x="450.33000000000015" y="279.5200000000002" as="targetPoint" />
            <Array as="points">
              <mxPoint x="427" y="279" />
            </Array>
          </mxGeometry>
        </mxCell>
        <mxCell id="h-oLE68M1VgkEwbi_Za4-29" value="OTP + OTP ID" style="text;html=1;align=center;verticalAlign=middle;resizable=0;points=[];autosize=1;strokeColor=none;fillColor=none;fontSize=10;" parent="3nuBFxr9cyL0pnOWT2aG-5" vertex="1">
          <mxGeometry x="334" y="483" width="80" height="20" as="geometry" />
        </mxCell>
        <mxCell id="3nuBFxr9cyL0pnOWT2aG-8" value="Click Login Button" style="verticalAlign=bottom;endArrow=block;entryX=0;entryY=0;shadow=0;strokeWidth=1;" parent="1" source="3nuBFxr9cyL0pnOWT2aG-2" target="3nuBFxr9cyL0pnOWT2aG-6" edge="1">
          <mxGeometry relative="1" as="geometry">
            <mxPoint x="275" y="160" as="sourcePoint" />
          </mxGeometry>
        </mxCell>
        <mxCell id="h-oLE68M1VgkEwbi_Za4-1" value=":AuthServer" style="shape=umlLifeline;perimeter=lifelinePerimeter;container=1;collapsible=0;recursiveResize=0;rounded=0;shadow=0;strokeWidth=1;" parent="1" vertex="1">
          <mxGeometry x="600" y="80" width="100" height="920" as="geometry" />
        </mxCell>
        <mxCell id="h-oLE68M1VgkEwbi_Za4-2" value="" style="points=[];perimeter=orthogonalPerimeter;rounded=0;shadow=0;strokeWidth=1;" parent="h-oLE68M1VgkEwbi_Za4-1" vertex="1">
          <mxGeometry x="45" y="80" width="10" height="760" as="geometry" />
        </mxCell>
        <mxCell id="h-oLE68M1VgkEwbi_Za4-22" value="" style="html=1;points=[];perimeter=orthogonalPerimeter;fontSize=10;" parent="h-oLE68M1VgkEwbi_Za4-1" vertex="1">
          <mxGeometry x="51" y="427" width="10" height="30" as="geometry" />
        </mxCell>
        <mxCell id="h-oLE68M1VgkEwbi_Za4-23" value="validate token" style="edgeStyle=orthogonalEdgeStyle;html=1;align=left;spacingLeft=2;endArrow=block;rounded=0;entryX=1;entryY=0;fontSize=10;" parent="h-oLE68M1VgkEwbi_Za4-1" target="h-oLE68M1VgkEwbi_Za4-22" edge="1">
          <mxGeometry relative="1" as="geometry">
            <mxPoint x="56" y="407" as="sourcePoint" />
            <Array as="points">
              <mxPoint x="86" y="407" />
            </Array>
          </mxGeometry>
        </mxCell>
        <mxCell id="h-oLE68M1VgkEwbi_Za4-36" value="" style="html=1;points=[];perimeter=orthogonalPerimeter;" parent="h-oLE68M1VgkEwbi_Za4-1" vertex="1">
          <mxGeometry x="51" y="791" width="10" height="40" as="geometry" />
        </mxCell>
        <mxCell id="h-oLE68M1VgkEwbi_Za4-37" value="Validate &amp;amp; Issue Token" style="edgeStyle=orthogonalEdgeStyle;html=1;align=left;spacingLeft=2;endArrow=block;rounded=0;entryX=1;entryY=0;" parent="h-oLE68M1VgkEwbi_Za4-1" target="h-oLE68M1VgkEwbi_Za4-36" edge="1">
          <mxGeometry relative="1" as="geometry">
            <mxPoint x="56" y="771" as="sourcePoint" />
            <Array as="points">
              <mxPoint x="86" y="771" />
            </Array>
          </mxGeometry>
        </mxCell>
        <mxCell id="h-oLE68M1VgkEwbi_Za4-3" value=":TCInvestApp" style="shape=umlLifeline;perimeter=lifelinePerimeter;container=1;collapsible=0;recursiveResize=0;rounded=0;shadow=0;strokeWidth=1;" parent="1" vertex="1">
          <mxGeometry x="760" y="80" width="100" height="920" as="geometry" />
        </mxCell>
        <mxCell id="h-oLE68M1VgkEwbi_Za4-26" value="" style="points=[];perimeter=orthogonalPerimeter;rounded=0;shadow=0;strokeWidth=1;" parent="h-oLE68M1VgkEwbi_Za4-3" vertex="1">
          <mxGeometry x="45" y="280" width="10" height="40" as="geometry" />
        </mxCell>
        <mxCell id="h-oLE68M1VgkEwbi_Za4-27" value="" style="points=[];perimeter=orthogonalPerimeter;rounded=0;shadow=0;strokeWidth=1;" parent="h-oLE68M1VgkEwbi_Za4-3" vertex="1">
          <mxGeometry x="45" y="480" width="10" height="50" as="geometry" />
        </mxCell>
        <mxCell id="h-oLE68M1VgkEwbi_Za4-5" value="Authorization Code Request  " style="verticalAlign=bottom;endArrow=block;entryX=0;entryY=0;shadow=0;strokeWidth=1;" parent="1" edge="1">
          <mxGeometry relative="1" as="geometry">
            <mxPoint x="416" y="200.00000000000136" as="sourcePoint" />
            <mxPoint x="646" y="200.00000000000136" as="targetPoint" />
          </mxGeometry>
        </mxCell>
        <mxCell id="h-oLE68M1VgkEwbi_Za4-9" value="Redirect to login page &amp; Authorize  " style="verticalAlign=bottom;endArrow=block;shadow=0;strokeWidth=1;" parent="1" edge="1">
          <mxGeometry relative="1" as="geometry">
            <mxPoint x="640" y="240" as="sourcePoint" />
            <mxPoint x="175.66666666666674" y="239" as="targetPoint" />
            <Array as="points">
              <mxPoint x="386" y="239" />
            </Array>
          </mxGeometry>
        </mxCell>
        <mxCell id="h-oLE68M1VgkEwbi_Za4-10" value="Authenticate " style="verticalAlign=bottom;endArrow=block;shadow=0;strokeWidth=1;" parent="1" edge="1">
          <mxGeometry relative="1" as="geometry">
            <mxPoint x="180" y="280.00000000000136" as="sourcePoint" />
            <mxPoint x="650" y="280" as="targetPoint" />
          </mxGeometry>
        </mxCell>
        <mxCell id="h-oLE68M1VgkEwbi_Za4-30" value="&lt;font style=&quot;font-size: 10px;&quot;&gt;if has important&lt;br&gt;permission&lt;/font&gt;" style="text;html=1;align=left;verticalAlign=middle;resizable=0;points=[];autosize=1;strokeColor=none;fillColor=none;" parent="1" vertex="1">
          <mxGeometry x="50" y="359" width="80" height="40" as="geometry" />
        </mxCell>
        <mxCell id="h-oLE68M1VgkEwbi_Za4-21" value="otp id" style="html=1;verticalAlign=bottom;endArrow=open;dashed=1;endSize=8;rounded=0;exitX=0.5;exitY=0.992;exitDx=0;exitDy=0;exitPerimeter=0;" parent="1" source="h-oLE68M1VgkEwbi_Za4-26" edge="1">
          <mxGeometry x="0.0353" y="-9" relative="1" as="geometry">
            <mxPoint x="395" y="329.0000000000001" as="sourcePoint" />
            <mxPoint x="655" y="399.68000000000006" as="targetPoint" />
            <mxPoint as="offset" />
          </mxGeometry>
        </mxCell>
        <mxCell id="h-oLE68M1VgkEwbi_Za4-16" value="Access Token Login + OTP ID" style="html=1;verticalAlign=bottom;endArrow=open;dashed=1;endSize=8;rounded=0;exitX=-0.25;exitY=0.729;exitDx=0;exitDy=0;exitPerimeter=0;" parent="1" edge="1">
          <mxGeometry x="0.0353" y="-9" relative="1" as="geometry">
            <mxPoint x="642.5" y="440.76" as="sourcePoint" />
            <mxPoint x="180" y="440" as="targetPoint" />
            <mxPoint as="offset" />
          </mxGeometry>
        </mxCell>
        <mxCell id="h-oLE68M1VgkEwbi_Za4-28" value="Verify OTP" style="verticalAlign=bottom;endArrow=block;shadow=0;strokeWidth=1;exitX=0.917;exitY=0.911;exitDx=0;exitDy=0;exitPerimeter=0;" parent="1" edge="1">
          <mxGeometry relative="1" as="geometry">
            <mxPoint x="655.1700000000001" y="559.8400000000001" as="sourcePoint" />
            <mxPoint x="811" y="560" as="targetPoint" />
          </mxGeometry>
        </mxCell>
        <mxCell id="h-oLE68M1VgkEwbi_Za4-31" value="" style="edgeStyle=orthogonalEdgeStyle;rounded=0;orthogonalLoop=1;jettySize=auto;html=1;" parent="1" target="h-oLE68M1VgkEwbi_Za4-22" edge="1">
          <mxGeometry relative="1" as="geometry">
            <mxPoint x="655" y="610" as="sourcePoint" />
          </mxGeometry>
        </mxCell>
        <mxCell id="h-oLE68M1VgkEwbi_Za4-33" value="Authorization Code  " style="verticalAlign=bottom;endArrow=block;shadow=0;strokeWidth=1;entryX=1.25;entryY=0.778;entryDx=0;entryDy=0;entryPerimeter=0;" parent="1" edge="1">
          <mxGeometry relative="1" as="geometry">
            <mxPoint x="645" y="801.28" as="sourcePoint" />
            <mxPoint x="417.5" y="801.28" as="targetPoint" />
          </mxGeometry>
        </mxCell>
        <mxCell id="h-oLE68M1VgkEwbi_Za4-35" value="Authorization Code + Client ID + Client Secret" style="verticalAlign=bottom;endArrow=block;shadow=0;strokeWidth=1;" parent="1" edge="1">
          <mxGeometry relative="1" as="geometry">
            <mxPoint x="416" y="841" as="sourcePoint" />
            <mxPoint x="645" y="841" as="targetPoint" />
          </mxGeometry>
        </mxCell>
        <mxCell id="h-oLE68M1VgkEwbi_Za4-40" value="Access Token API" style="verticalAlign=bottom;endArrow=block;shadow=0;strokeWidth=1;" parent="1" edge="1">
          <mxGeometry relative="1" as="geometry">
            <mxPoint x="640" y="921" as="sourcePoint" />
            <mxPoint x="415" y="921" as="targetPoint" />
          </mxGeometry>
        </mxCell>
        <mxCell id="h-oLE68M1VgkEwbi_Za4-41" value=":OpenAPI" style="shape=umlLifeline;perimeter=lifelinePerimeter;container=1;collapsible=0;recursiveResize=0;rounded=0;shadow=0;strokeWidth=1;" parent="1" vertex="1">
          <mxGeometry x="920" y="80" width="100" height="920" as="geometry" />
        </mxCell>
        <mxCell id="h-oLE68M1VgkEwbi_Za4-44" value="Request OpenAPI with Access Token API" style="verticalAlign=bottom;endArrow=block;shadow=0;strokeWidth=1;" parent="1" edge="1">
          <mxGeometry relative="1" as="geometry">
            <mxPoint x="417" y="958" as="sourcePoint" />
            <mxPoint x="966.5" y="958" as="targetPoint" />
          </mxGeometry>
        </mxCell>
        <mxCell id="KO6zfnBaP93Wm_9rGQSS-3" value="Redirect to consent Page  " style="verticalAlign=bottom;endArrow=block;shadow=0;strokeWidth=1;" edge="1" parent="1">
          <mxGeometry relative="1" as="geometry">
            <mxPoint x="646.5" y="720" as="sourcePoint" />
            <mxPoint x="171.5" y="720" as="targetPoint" />
          </mxGeometry>
        </mxCell>
        <mxCell id="KO6zfnBaP93Wm_9rGQSS-4" value="Consent" style="verticalAlign=bottom;endArrow=block;shadow=0;strokeWidth=1;" edge="1" parent="1">
          <mxGeometry relative="1" as="geometry">
            <mxPoint x="175" y="760.0000000000014" as="sourcePoint" />
            <mxPoint x="645" y="760" as="targetPoint" />
          </mxGeometry>
        </mxCell>
      </root>
    </mxGraphModel>
  </diagram>
</mxfile>
